# xmcd CD database file
#
# Track frame offsets:
#	150
#	16035
#	35634
#
# Disc length: 597 seconds
#
# Revision: 0
# Processed by: cddbd v1.5.1PL0 Copyright (c) Steve Scherf et al.
# Submitted via: CDex 1.50Beta7
#
DISCID=18025303
DTITLE=[千世] 六ツ星きらり - 六ツ星きらりボーカルコレクションＣＤ
DYEAR=2004
DGENRE=Game
TTITLE0=☆☆☆☆☆☆/榎津まお＆春日りか＆倉沢はるか＆榊原ゆい＆茶谷やすら
TTITLE1=明日の青空/千葉 由美
TTITLE2=星座の日々/原田 ひとみ
EXTD=YEAR: 2004
EXTT0=
EXTT1=
EXTT2=
PLAYORDER=
